<svg width="228" height="254" viewBox="0 0 228 254" fill="none" xmlns="http://www.w3.org/2000/svg">
<path d="M0 70.9475C0 66.1627 4.53054 62.6747 9.15624 63.8982L108.17 90.087C111.369 90.9331 113.597 93.8273 113.597 97.1363V245.619C113.597 250.404 109.067 253.892 104.441 252.669L5.42721 226.48C2.22819 225.634 0 222.739 0 219.43V70.9475Z" fill="#D33D3D"/>
<path d="M227.195 70.9508C227.195 66.165 222.663 62.6768 218.037 63.9021L119.023 90.1264C115.825 90.9733 113.598 93.867 113.598 97.1751V245.878C113.598 250.664 118.13 254.152 122.757 252.927L221.77 226.703C224.968 225.856 227.195 222.962 227.195 219.654V70.9508Z" fill="#CA3737"/>
<path d="M2.88574 60.8707C2.88574 57.0779 6.48973 54.3216 10.1501 55.315L109.348 82.2365C111.856 82.9171 113.597 85.1936 113.597 87.7922V239.43C113.597 243.223 109.993 245.979 106.333 244.986L7.13461 218.065C4.62671 217.384 2.88574 215.108 2.88574 212.509V60.8707Z" fill="url(#paint0_linear_110_289)"/>
<path d="M224.309 60.8734C224.309 57.0797 220.703 54.3233 217.042 55.3182L117.844 82.2762C115.337 82.9575 113.597 85.2334 113.597 87.8313V239.69C113.597 243.484 117.203 246.24 120.863 245.245L220.062 218.287C222.569 217.606 224.309 215.33 224.309 212.732V60.8734Z" fill="#F83333"/>
<path d="M11.0186 68.5486C11.0186 66.0338 13.3969 64.1986 15.8295 64.8363L110.733 89.715C112.42 90.1575 113.597 91.6826 113.597 93.4273V231.884C113.597 234.398 111.219 236.234 108.786 235.596L13.8831 210.717C12.1954 210.275 11.0186 208.75 11.0186 207.005V68.5486Z" fill="url(#paint1_linear_110_289)"/>
<path d="M216.176 68.5496C216.176 66.0345 213.797 64.1993 211.364 64.8375L116.461 89.735C114.774 90.1777 113.597 91.7027 113.597 93.4472V232.014C113.597 234.529 115.976 236.364 118.409 235.726L213.312 210.828C214.999 210.386 216.176 208.861 216.176 207.116V68.5496Z" fill="#FEFEFE"/>
<path fill-rule="evenodd" clip-rule="evenodd" d="M25.7618 82.1972C25.9745 81.3765 26.8121 80.8835 27.6329 81.0962L101.701 100.285C102.522 100.498 103.015 101.335 102.802 102.156C102.59 102.977 101.752 103.47 100.931 103.257L26.8629 84.0682C26.0422 83.8556 25.5492 83.0179 25.7618 82.1972Z" fill="#E0E0E0"/>
<path fill-rule="evenodd" clip-rule="evenodd" d="M25.7618 107.143C25.9745 106.322 26.8121 105.829 27.6329 106.042L101.701 125.23C102.522 125.443 103.015 126.281 102.802 127.101C102.59 127.922 101.752 128.415 100.931 128.202L26.8629 109.014C26.0422 108.801 25.5492 107.963 25.7618 107.143Z" fill="#E0E0E0"/>
<path fill-rule="evenodd" clip-rule="evenodd" d="M25.7618 132.088C25.9745 131.267 26.8121 130.774 27.6329 130.987L101.701 150.176C102.522 150.388 103.015 151.226 102.802 152.047C102.59 152.867 101.752 153.36 100.931 153.148L26.8629 133.959C26.0422 133.746 25.5492 132.909 25.7618 132.088Z" fill="#E0E0E0"/>
<path fill-rule="evenodd" clip-rule="evenodd" d="M25.7618 157.033C25.9745 156.213 26.8121 155.72 27.6329 155.932L101.701 175.121C102.522 175.334 103.015 176.171 102.802 176.992C102.59 177.813 101.752 178.306 100.931 178.093L26.8629 158.904C26.0422 158.692 25.5492 157.854 25.7618 157.033Z" fill="#E0E0E0"/>
<path fill-rule="evenodd" clip-rule="evenodd" d="M25.7618 181.979C25.9745 181.158 26.8121 180.665 27.6329 180.878L101.701 200.066C102.522 200.279 103.015 201.117 102.802 201.937C102.59 202.758 101.752 203.251 100.931 203.038L26.8629 183.85C26.0422 183.637 25.5492 182.799 25.7618 181.979Z" fill="#E0E0E0"/>
<path fill-rule="evenodd" clip-rule="evenodd" d="M25.7618 94.0942C25.9745 93.2735 26.8121 92.7806 27.6329 92.9932L101.701 112.182C102.522 112.395 103.015 113.232 102.802 114.053C102.59 114.874 101.752 115.367 100.931 115.154L26.8629 95.9653C26.0422 95.7526 25.5492 94.915 25.7618 94.0942Z" fill="#E0E0E0"/>
<path fill-rule="evenodd" clip-rule="evenodd" d="M25.7618 119.04C25.9745 118.219 26.8121 117.726 27.6329 117.939L101.701 137.127C102.522 137.34 103.015 138.178 102.802 138.998C102.59 139.819 101.752 140.312 100.931 140.099L26.8629 120.911C26.0422 120.698 25.5492 119.86 25.7618 119.04Z" fill="#E0E0E0"/>
<path fill-rule="evenodd" clip-rule="evenodd" d="M25.7618 143.985C25.9745 143.164 26.8121 142.671 27.6329 142.884L101.701 162.073C102.522 162.285 103.015 163.123 102.802 163.944C102.59 164.764 101.752 165.257 100.931 165.045L26.8629 145.856C26.0422 145.643 25.5492 144.806 25.7618 143.985Z" fill="#E0E0E0"/>
<path fill-rule="evenodd" clip-rule="evenodd" d="M25.7618 168.93C25.9745 168.11 26.8121 167.617 27.6329 167.829L101.701 187.018C102.522 187.231 103.015 188.068 102.802 188.889C102.59 189.71 101.752 190.203 100.931 189.99L26.8629 170.801C26.0422 170.589 25.5492 169.751 25.7618 168.93Z" fill="#E0E0E0"/>
<path fill-rule="evenodd" clip-rule="evenodd" d="M25.7618 193.876C25.9745 193.055 26.8121 192.562 27.6329 192.775L101.701 211.963C102.522 212.176 103.015 213.014 102.802 213.834C102.59 214.655 101.752 215.148 100.931 214.935L26.8629 195.747C26.0422 195.534 25.5492 194.696 25.7618 193.876Z" fill="#E0E0E0"/>
<path fill-rule="evenodd" clip-rule="evenodd" d="M203.351 82.1972C203.138 81.3765 202.301 80.8835 201.48 81.0962L127.411 100.285C126.591 100.498 126.098 101.335 126.31 102.156C126.523 102.977 127.361 103.47 128.181 103.257L202.25 84.0682C203.071 83.8556 203.564 83.0179 203.351 82.1972Z" fill="#E0E0E0"/>
<path fill-rule="evenodd" clip-rule="evenodd" d="M203.351 107.143C203.138 106.322 202.301 105.829 201.48 106.042L127.411 125.23C126.591 125.443 126.098 126.281 126.31 127.101C126.523 127.922 127.361 128.415 128.181 128.202L202.25 109.014C203.071 108.801 203.564 107.963 203.351 107.143Z" fill="#E0E0E0"/>
<path fill-rule="evenodd" clip-rule="evenodd" d="M203.351 132.088C203.138 131.267 202.301 130.774 201.48 130.987L127.411 150.176C126.591 150.388 126.098 151.226 126.31 152.047C126.523 152.867 127.361 153.36 128.181 153.148L202.25 133.959C203.071 133.746 203.564 132.909 203.351 132.088Z" fill="#E0E0E0"/>
<path fill-rule="evenodd" clip-rule="evenodd" d="M203.351 157.033C203.138 156.213 202.301 155.72 201.48 155.932L127.411 175.121C126.591 175.334 126.098 176.171 126.31 176.992C126.523 177.813 127.361 178.306 128.181 178.093L202.25 158.904C203.071 158.692 203.564 157.854 203.351 157.033Z" fill="#E0E0E0"/>
<path fill-rule="evenodd" clip-rule="evenodd" d="M203.351 181.979C203.138 181.158 202.301 180.665 201.48 180.878L127.411 200.066C126.591 200.279 126.098 201.117 126.31 201.937C126.523 202.758 127.361 203.251 128.181 203.038L202.25 183.85C203.071 183.637 203.564 182.799 203.351 181.979Z" fill="#E0E0E0"/>
<path fill-rule="evenodd" clip-rule="evenodd" d="M203.351 94.0942C203.138 93.2735 202.301 92.7806 201.48 92.9932L127.411 112.182C126.591 112.395 126.098 113.232 126.31 114.053C126.523 114.874 127.361 115.367 128.181 115.154L202.25 95.9653C203.071 95.7526 203.564 94.915 203.351 94.0942Z" fill="#E0E0E0"/>
<path fill-rule="evenodd" clip-rule="evenodd" d="M203.351 119.04C203.138 118.219 202.301 117.726 201.48 117.939L127.411 137.127C126.591 137.34 126.098 138.178 126.31 138.998C126.523 139.819 127.361 140.312 128.181 140.099L202.25 120.911C203.071 120.698 203.564 119.86 203.351 119.04Z" fill="#E0E0E0"/>
<path fill-rule="evenodd" clip-rule="evenodd" d="M203.351 143.985C203.138 143.164 202.301 142.671 201.48 142.884L127.411 162.073C126.591 162.285 126.098 163.123 126.31 163.944C126.523 164.764 127.361 165.257 128.181 165.045L202.25 145.856C203.071 145.643 203.564 144.806 203.351 143.985Z" fill="#E0E0E0"/>
<path fill-rule="evenodd" clip-rule="evenodd" d="M203.351 168.93C203.138 168.11 202.301 167.617 201.48 167.829L127.411 187.018C126.591 187.231 126.098 188.068 126.31 188.889C126.523 189.71 127.361 190.203 128.181 189.99L202.25 170.801C203.071 170.589 203.564 169.751 203.351 168.93Z" fill="#E0E0E0"/>
<path fill-rule="evenodd" clip-rule="evenodd" d="M203.351 193.876C203.138 193.055 202.301 192.562 201.48 192.775L127.411 211.963C126.591 212.176 126.098 213.014 126.31 213.834C126.523 214.655 127.361 215.148 128.181 214.935L202.25 195.747C203.071 195.534 203.564 194.696 203.351 193.876Z" fill="#E0E0E0"/>
<path fill-rule="evenodd" clip-rule="evenodd" d="M193.816 83.2705C193.349 82.5634 192.396 82.3692 191.689 82.8368C190.615 83.547 189.778 84.3846 189.429 85.4353C189.055 86.5596 189.348 87.5852 189.81 88.3897C190.25 89.155 190.91 89.8424 191.524 90.4295C191.825 90.7168 192.143 91.0051 192.448 91.2825C192.464 91.297 192.48 91.3116 192.496 91.3261C192.822 91.6218 193.135 91.9076 193.436 92.1969C194.732 93.4425 195.347 94.3618 195.342 95.1962C195.338 95.9407 194.799 97.3235 191.689 99.3799C190.541 100.139 189.694 101.006 189.239 102.033C188.769 103.096 188.798 104.151 189.079 105.106C189.349 106.021 189.855 106.866 190.375 107.606C190.786 108.193 191.263 108.79 191.708 109.349C191.824 109.495 191.938 109.637 192.048 109.777C193.217 111.257 193.962 112.376 194.068 113.377C194.145 114.096 193.913 115.185 191.689 116.656C190.333 117.553 189.34 118.504 188.733 119.551C188.104 120.637 187.938 121.75 188.12 122.83C188.294 123.864 188.774 124.789 189.303 125.585C189.833 126.382 190.48 127.146 191.07 127.834C191.118 127.89 191.165 127.945 191.212 128C191.768 128.648 192.267 129.229 192.68 129.805C193.129 130.431 193.392 130.939 193.498 131.365C193.591 131.741 193.568 132.063 193.382 132.423C193.174 132.828 192.704 133.384 191.689 134.055C190.447 134.877 189.523 135.736 188.955 136.677C188.358 137.666 188.19 138.69 188.387 139.691C188.573 140.634 189.061 141.443 189.568 142.105C190.076 142.77 190.692 143.397 191.236 143.948C191.265 143.977 191.294 144.006 191.322 144.034C191.858 144.576 192.324 145.047 192.703 145.515C193.105 146.011 193.308 146.382 193.382 146.665C193.44 146.884 193.435 147.085 193.278 147.368C193.091 147.707 192.652 148.209 191.689 148.846C190.982 149.314 190.788 150.266 191.256 150.973C191.723 151.68 192.676 151.875 193.383 151.407C194.561 150.628 195.443 149.795 195.964 148.856C196.515 147.862 196.605 146.845 196.351 145.883C196.115 144.985 195.6 144.213 195.087 143.58C194.608 142.99 194.041 142.417 193.535 141.906C193.496 141.867 193.458 141.828 193.42 141.789C192.859 141.222 192.378 140.726 192.006 140.239C191.632 139.751 191.455 139.381 191.399 139.098C191.355 138.871 191.368 138.621 191.584 138.263C191.827 137.859 192.345 137.302 193.383 136.616C194.648 135.779 195.577 134.867 196.112 133.828C196.67 132.745 196.732 131.652 196.478 130.626C196.236 129.651 195.718 128.772 195.175 128.015C194.68 127.324 194.093 126.641 193.556 126.017C193.504 125.956 193.452 125.895 193.401 125.836C192.801 125.136 192.271 124.504 191.859 123.885C191.447 123.264 191.22 122.754 191.147 122.32C191.082 121.932 191.126 121.546 191.39 121.09C191.677 120.595 192.259 119.961 193.383 119.217C196.118 117.408 197.366 115.36 197.121 113.052C196.906 111.027 195.528 109.23 194.457 107.873C194.327 107.709 194.199 107.549 194.075 107.393C193.639 106.845 193.24 106.345 192.888 105.843C192.438 105.201 192.154 104.678 192.024 104.238C191.906 103.837 191.926 103.549 192.047 103.276C192.184 102.967 192.528 102.506 193.383 101.941C196.681 99.7596 198.399 97.5822 198.412 95.2133C198.425 92.9345 196.817 91.1875 195.564 89.9832C195.227 89.6599 194.883 89.3468 194.56 89.0536L194.522 89.019C194.209 88.7339 193.917 88.4692 193.645 88.2093C193.06 87.6509 192.678 87.218 192.472 86.8596C192.293 86.549 192.329 86.4444 192.341 86.4065C192.342 86.4055 192.342 86.4045 192.342 86.4036C192.379 86.2947 192.562 85.9406 193.383 85.3977C194.09 84.9301 194.284 83.9777 193.816 83.2705Z" fill="#FF2525"/>
<path fill-rule="evenodd" clip-rule="evenodd" d="M50.6675 143.523C50.1998 142.816 49.2475 142.622 48.5403 143.09C47.4665 143.8 46.6292 144.637 46.28 145.688C45.9064 146.812 46.1987 147.838 46.6612 148.642C47.1011 149.408 47.7608 150.095 48.3755 150.682C48.6763 150.969 48.9937 151.258 49.2991 151.535C49.3151 151.55 49.3311 151.564 49.3471 151.579C49.6726 151.874 49.9864 152.16 50.2874 152.45C51.5835 153.695 52.1976 154.614 52.193 155.449C52.1888 156.193 51.6499 157.576 48.5403 159.633C47.3925 160.392 46.5451 161.259 46.0905 162.286C45.6199 163.349 45.6489 164.404 45.9304 165.359C46.2001 166.274 46.7063 167.118 47.226 167.859C47.6373 168.445 48.1137 169.043 48.5591 169.602C48.675 169.747 48.7888 169.89 48.8988 170.029C50.0684 171.51 50.8128 172.628 50.9192 173.63C50.9956 174.349 50.7646 175.438 48.5403 176.909C47.1845 177.806 46.1911 178.757 45.5846 179.804C44.9555 180.89 44.7886 182.003 44.9707 183.083C45.1449 184.116 45.6248 185.042 46.1539 185.837C46.6838 186.634 47.3315 187.399 47.9213 188.087C47.969 188.142 48.0164 188.198 48.0634 188.252C48.6194 188.9 49.1183 189.482 49.5314 190.057C49.9804 190.684 50.2435 191.192 50.3492 191.618C50.4424 191.993 50.4187 192.316 50.2336 192.676C50.0251 193.08 49.5547 193.637 48.5403 194.308C47.2982 195.129 46.3739 195.988 45.8057 196.93C45.2095 197.918 45.0411 198.943 45.2382 199.944C45.424 200.887 45.9122 201.696 46.4187 202.358C46.9271 203.022 47.5432 203.65 48.0874 204.2C48.1161 204.23 48.1447 204.258 48.173 204.287C48.709 204.829 49.1748 205.3 49.5543 205.768C49.9565 206.263 50.1589 206.635 50.2333 206.918C50.291 207.137 50.2861 207.338 50.1294 207.621C49.9416 207.959 49.5032 208.462 48.5403 209.099C47.8331 209.566 47.639 210.519 48.1066 211.226C48.5743 211.933 49.5266 212.127 50.2338 211.66C51.4121 210.88 52.2945 210.047 52.8146 209.109C53.3657 208.115 53.4557 207.098 53.2023 206.136C52.9658 205.238 52.4515 204.466 51.9383 203.833C51.4594 203.243 50.8919 202.67 50.3863 202.159C50.3474 202.12 50.3089 202.081 50.2708 202.042C49.7098 201.475 49.2293 200.979 48.857 200.492C48.4829 200.003 48.3064 199.634 48.2505 199.35C48.2059 199.124 48.219 198.873 48.4346 198.516C48.6783 198.112 49.1961 197.555 50.2338 196.869C51.4992 196.032 52.4285 195.119 52.9631 194.081C53.521 192.998 53.5835 191.904 53.3291 190.879C53.0872 189.903 52.5691 189.025 52.0263 188.268C51.5306 187.577 50.944 186.894 50.4074 186.269C50.3551 186.208 50.3033 186.148 50.2521 186.088C49.6519 185.388 49.1222 184.757 48.7103 184.137C48.2976 183.517 48.0713 183.006 47.9981 182.572C47.9328 182.185 47.9772 181.799 48.2413 181.343C48.528 180.848 49.1096 180.213 50.2338 179.47C52.9696 177.661 54.2173 175.612 53.9722 173.305C53.757 171.28 52.3795 169.482 51.3079 168.126C51.1778 167.961 51.0505 167.802 50.9264 167.646C50.4897 167.098 50.0913 166.597 49.7394 166.096C49.2889 165.454 49.0051 164.931 48.8753 164.491C48.7573 164.09 48.7771 163.801 48.8979 163.529C49.0347 163.22 49.3791 162.759 50.2338 162.193C53.5322 160.012 55.2499 157.835 55.2631 155.466C55.2758 153.187 53.6679 151.44 52.4147 150.236C52.0784 149.913 51.7343 149.599 51.4115 149.306L51.3735 149.272C51.0596 148.987 50.7682 148.722 50.4961 148.462C49.9114 147.904 49.5289 147.471 49.3229 147.112C49.1443 146.802 49.1798 146.697 49.1926 146.659C49.1929 146.658 49.1933 146.657 49.1936 146.656C49.2297 146.547 49.413 146.193 50.2338 145.65C50.941 145.183 51.1351 144.23 50.6675 143.523Z" fill="#25E5FF"/>
<path fill-rule="evenodd" clip-rule="evenodd" d="M77.1485 120.113C76.6808 119.406 75.7284 119.212 75.0212 119.679C73.9474 120.389 73.1102 121.227 72.761 122.278C72.3874 123.402 72.6796 124.428 73.1421 125.232C73.5821 125.997 74.2418 126.685 74.8565 127.272C75.1572 127.559 75.4747 127.848 75.78 128.125C75.7961 128.139 75.8121 128.154 75.828 128.168C76.1536 128.464 76.4673 128.75 76.7683 129.039C78.0645 130.285 78.6786 131.204 78.6739 132.039C78.6698 132.783 78.1309 134.166 75.0212 136.222C73.8735 136.981 73.026 137.849 72.5714 138.875C72.1009 139.938 72.1299 140.993 72.4113 141.948C72.6811 142.863 73.1872 143.708 73.7069 144.449C74.1182 145.035 74.5946 145.633 75.04 146.192C75.1559 146.337 75.2697 146.48 75.3797 146.619C76.5493 148.099 77.2937 149.218 77.4001 150.219C77.4766 150.939 77.2455 152.028 75.0212 153.499C73.6654 154.395 72.6721 155.346 72.0655 156.394C71.4364 157.48 71.2695 158.592 71.4516 159.672C71.6259 160.706 72.1058 161.632 72.6348 162.427C73.1647 163.224 73.8125 163.989 74.4022 164.676C74.45 164.732 74.4974 164.787 74.5444 164.842C75.1004 165.49 75.5993 166.071 76.0123 166.647C76.4614 167.273 76.7245 167.781 76.8301 168.207C76.9233 168.583 76.8996 168.906 76.7145 169.265C76.5061 169.67 76.0357 170.227 75.0212 170.898C73.7792 171.719 72.8548 172.578 72.2867 173.52C71.6905 174.508 71.5221 175.533 71.7191 176.533C71.9049 177.477 72.3931 178.286 72.8997 178.948C73.4081 179.612 74.0242 180.24 74.5684 180.79C74.5971 180.819 74.6256 180.848 74.654 180.877C75.1899 181.419 75.6558 181.89 76.0353 182.357C76.4374 182.853 76.6399 183.225 76.7143 183.507C76.7719 183.726 76.7671 183.928 76.6103 184.21C76.4226 184.549 75.9841 185.052 75.0212 185.689C74.3141 186.156 74.1199 187.109 74.5876 187.816C75.0552 188.523 76.0076 188.717 76.7148 188.249C77.893 187.47 78.7755 186.637 79.2956 185.699C79.8467 184.705 79.9366 183.688 79.6833 182.726C79.4468 181.827 78.9325 181.055 78.4193 180.423C77.9404 179.833 77.3728 179.259 76.8673 178.749C76.8284 178.709 76.7899 178.67 76.7518 178.632C76.1907 178.064 75.7103 177.568 75.338 177.082C74.9639 176.593 74.7873 176.224 74.7315 175.94C74.6869 175.714 74.6999 175.463 74.9156 175.106C75.1593 174.702 75.6771 174.145 76.7148 173.458C77.9801 172.622 78.9095 171.709 79.4441 170.671C80.0019 169.588 80.0644 168.494 79.8101 167.468C79.5682 166.493 79.05 165.615 78.5072 164.858C78.0116 164.167 77.425 163.484 76.8884 162.859C76.8361 162.798 76.7843 162.738 76.7331 162.678C76.1328 161.978 75.6032 161.346 75.1913 160.727C74.7786 160.106 74.5523 159.596 74.4791 159.162C74.4138 158.775 74.4582 158.388 74.7223 157.932C75.0089 157.437 75.5906 156.803 76.7148 156.06C79.4505 154.25 80.6982 152.202 80.4531 149.895C80.238 147.87 78.8605 146.072 77.7888 144.716C77.6587 144.551 77.5315 144.391 77.4074 144.235C76.9707 143.687 76.5722 143.187 76.2203 142.686C75.7699 142.043 75.4861 141.521 75.3563 141.08C75.2382 140.68 75.258 140.391 75.3789 140.118C75.5156 139.809 75.86 139.348 76.7148 138.783C80.0131 136.602 81.7309 134.425 81.7441 132.056C81.7568 129.777 80.1489 128.03 78.8957 126.826C78.5593 126.502 78.2153 126.189 77.8925 125.896L77.8544 125.861C77.5406 125.576 77.2492 125.312 76.977 125.052C76.3924 124.493 76.0099 124.06 75.8039 123.702C75.6253 123.391 75.6607 123.287 75.6735 123.249C75.6739 123.248 75.6742 123.247 75.6745 123.246C75.7107 123.137 75.8939 122.783 76.7148 122.24C77.4219 121.772 77.6161 120.82 77.1485 120.113Z" fill="#FF7B01"/>
<path fill-rule="evenodd" clip-rule="evenodd" d="M105.548 98.6215C105.08 97.9144 104.128 97.7202 103.421 98.1878C102.347 98.898 101.51 99.7356 101.16 100.786C100.787 101.911 101.079 102.936 101.542 103.741C101.982 104.506 102.641 105.193 103.256 105.78C103.557 106.068 103.874 106.356 104.179 106.633C104.195 106.648 104.211 106.663 104.227 106.677C104.553 106.973 104.867 107.259 105.168 107.548C106.464 108.793 107.078 109.713 107.073 110.547C107.069 111.292 106.53 112.675 103.421 114.731C102.273 115.49 101.425 116.357 100.971 117.384C100.5 118.447 100.529 119.502 100.811 120.457C101.08 121.372 101.587 122.217 102.106 122.957C102.518 123.544 102.994 124.141 103.439 124.7C103.555 124.846 103.669 124.988 103.779 125.128C104.949 126.608 105.693 127.727 105.8 128.728C105.876 129.447 105.645 130.536 103.421 132.007C102.065 132.904 101.071 133.855 100.465 134.902C99.8359 135.988 99.6689 137.101 99.851 138.181C100.025 139.215 100.505 140.14 101.034 140.936C101.564 141.733 102.212 142.497 102.802 143.185C102.849 143.241 102.897 143.296 102.944 143.351C103.5 143.999 103.999 144.58 104.412 145.156C104.861 145.782 105.124 146.29 105.23 146.716C105.323 147.092 105.299 147.414 105.114 147.774C104.906 148.179 104.435 148.735 103.421 149.406C102.179 150.228 101.254 151.087 100.686 152.028C100.09 153.017 99.9215 154.041 100.119 155.042C100.304 155.985 100.793 156.794 101.299 157.456C101.807 158.121 102.424 158.748 102.968 159.299C102.997 159.328 103.025 159.357 103.053 159.385C103.589 159.927 104.055 160.398 104.435 160.866C104.837 161.362 105.039 161.733 105.114 162.016C105.171 162.235 105.166 162.436 105.01 162.719C104.822 163.058 104.384 163.56 103.421 164.197C102.713 164.665 102.519 165.617 102.987 166.324C103.455 167.031 104.407 167.226 105.114 166.758C106.292 165.979 107.175 165.146 107.695 164.207C108.246 163.213 108.336 162.196 108.083 161.234C107.846 160.336 107.332 159.564 106.819 158.931C106.34 158.341 105.772 157.768 105.267 157.257C105.228 157.218 105.189 157.179 105.151 157.14C104.59 156.573 104.11 156.077 103.737 155.59C103.363 155.102 103.187 154.732 103.131 154.449C103.086 154.222 103.099 153.972 103.315 153.614C103.559 153.21 104.076 152.653 105.114 151.967C106.38 151.13 107.309 150.218 107.843 149.179C108.401 148.096 108.464 147.003 108.209 145.977C107.968 145.002 107.449 144.123 106.907 143.366C106.411 142.675 105.824 141.992 105.288 141.368C105.236 141.307 105.184 141.246 105.132 141.187C104.532 140.487 104.003 139.855 103.591 139.236C103.178 138.615 102.952 138.105 102.879 137.671C102.813 137.283 102.858 136.897 103.122 136.441C103.408 135.946 103.99 135.312 105.114 134.568C107.85 132.759 109.098 130.711 108.853 128.403C108.637 126.378 107.26 124.581 106.188 123.224C106.058 123.06 105.931 122.9 105.807 122.744C105.37 122.196 104.972 121.696 104.62 121.194C104.169 120.552 103.886 120.029 103.756 119.589C103.638 119.188 103.657 118.9 103.778 118.627C103.915 118.318 104.259 117.857 105.114 117.292C108.413 115.111 110.13 112.933 110.143 110.564C110.156 108.285 108.548 106.538 107.295 105.334C106.959 105.011 106.615 104.698 106.292 104.405L106.254 104.37C105.94 104.085 105.649 103.82 105.376 103.56C104.792 103.002 104.409 102.569 104.203 102.211C104.025 101.9 104.06 101.795 104.073 101.758C104.073 101.756 104.074 101.755 104.074 101.755C104.11 101.646 104.293 101.292 105.114 100.749C105.821 100.281 106.016 99.3287 105.548 98.6215Z" fill="#FFCF25"/>
<path fill-rule="evenodd" clip-rule="evenodd" d="M24.1875 81.3517C23.7199 80.6445 22.7675 80.4503 22.0603 80.918C20.9865 81.6281 20.1492 82.4658 19.8001 83.5165C19.4264 84.6408 19.7187 85.6663 20.1812 86.4709C20.6212 87.2362 21.2808 87.9235 21.8955 88.5106C22.1963 88.7979 22.5137 89.0862 22.8191 89.3636C22.8351 89.3782 22.8511 89.3927 22.8671 89.4072C23.1927 89.7029 23.5064 89.9888 23.8074 90.278C25.1035 91.5236 25.7176 92.4429 25.713 93.2774C25.7088 94.0218 25.1699 95.4046 22.0603 97.461C20.9126 98.2201 20.0651 99.0873 19.6105 100.114C19.14 101.177 19.1689 102.232 19.4504 103.187C19.7201 104.102 20.2263 104.947 20.746 105.688C21.1573 106.274 21.6337 106.871 22.0791 107.43C22.195 107.576 22.3088 107.718 22.4188 107.858C23.5884 109.338 24.3328 110.457 24.4392 111.458C24.5156 112.177 24.2846 113.267 22.0603 114.737C20.7045 115.634 19.7111 116.585 19.1046 117.632C18.4755 118.718 18.3086 119.831 18.4907 120.911C18.6649 121.945 19.1448 122.87 19.6739 123.666C20.2038 124.463 20.8516 125.227 21.4413 125.915C21.4891 125.971 21.5364 126.026 21.5834 126.081C22.1394 126.729 22.6383 127.31 23.0514 127.886C23.5004 128.512 23.7636 129.02 23.8692 129.446C23.9624 129.822 23.9387 130.144 23.7536 130.504C23.5452 130.909 23.0747 131.465 22.0603 132.136C20.8182 132.958 19.8939 133.817 19.3257 134.758C18.7295 135.747 18.5611 136.772 18.7582 137.772C18.944 138.715 19.4322 139.524 19.9388 140.186C20.4471 140.851 21.0633 141.479 21.6074 142.029C21.6362 142.058 21.6647 142.087 21.693 142.116C22.229 142.657 22.6948 143.128 23.0743 143.596C23.4765 144.092 23.6789 144.463 23.7534 144.746C23.811 144.965 23.8061 145.166 23.6494 145.449C23.4616 145.788 23.0232 146.291 22.0603 146.927C21.3531 147.395 21.159 148.347 21.6266 149.054C22.0943 149.762 23.0467 149.956 23.7538 149.488C24.9321 148.709 25.8145 147.876 26.3346 146.938C26.8857 145.943 26.9757 144.926 26.7224 143.964C26.4858 143.066 25.9715 142.294 25.4584 141.662C24.9795 141.071 24.4119 140.498 23.9064 139.987C23.8675 139.948 23.8289 139.909 23.7908 139.87C23.2298 139.303 22.7493 138.807 22.377 138.321C22.0029 137.832 21.8264 137.462 21.7705 137.179C21.726 136.953 21.739 136.702 21.9546 136.344C22.1983 135.94 22.7161 135.383 23.7538 134.697C25.0192 133.86 25.9486 132.948 26.4831 131.91C27.041 130.826 27.1035 129.733 26.8491 128.707C26.6072 127.732 26.0891 126.853 25.5463 126.097C25.0507 125.406 24.464 124.723 23.9274 124.098C23.8752 124.037 23.8233 123.977 23.7721 123.917C23.1719 123.217 22.6422 122.585 22.2303 121.966C21.8176 121.345 21.5913 120.835 21.5182 120.401C21.4528 120.013 21.4972 119.627 21.7613 119.171C22.048 118.676 22.6296 118.042 23.7538 117.298C26.4896 115.489 27.7373 113.441 27.4922 111.134C27.277 109.108 25.8996 107.311 24.8279 105.954C24.6978 105.79 24.5706 105.63 24.4464 105.474C24.0097 104.926 23.6113 104.426 23.2594 103.924C22.8089 103.282 22.5252 102.759 22.3953 102.319C22.2773 101.919 22.2971 101.63 22.4179 101.357C22.5547 101.048 22.8991 100.587 23.7538 100.022C27.0522 97.8407 28.7699 95.6633 28.7831 93.2945C28.7958 91.0156 27.1879 89.2686 25.9347 88.0643C25.5984 87.7411 25.2543 87.4279 24.9315 87.1347L24.8935 87.1001C24.5796 86.815 24.2882 86.5503 24.0161 86.2904C23.4315 85.732 23.049 85.2991 22.8429 84.9407C22.6644 84.6301 22.6998 84.5255 22.7126 84.4877C22.7129 84.4866 22.7133 84.4856 22.7136 84.4847C22.7498 84.3759 22.933 84.0217 23.7538 83.4789C24.461 83.0112 24.6552 82.0588 24.1875 81.3517Z" fill="#E125FF"/>
<path fill-rule="evenodd" clip-rule="evenodd" d="M140.471 110.519C140.003 109.811 139.051 109.617 138.344 110.085C137.27 110.795 136.432 111.633 136.083 112.683C135.71 113.808 136.002 114.833 136.464 115.638C136.904 116.403 137.564 117.09 138.179 117.677C138.48 117.965 138.797 118.253 139.102 118.53C139.118 118.545 139.134 118.56 139.15 118.574C139.476 118.87 139.79 119.156 140.091 119.445C141.387 120.69 142.001 121.61 141.996 122.444C141.992 123.189 141.453 124.572 138.344 126.628C137.196 127.387 136.348 128.254 135.894 129.281C135.423 130.344 135.452 131.399 135.734 132.354C136.003 133.269 136.509 134.114 137.029 134.854C137.44 135.441 137.917 136.038 138.362 136.597C138.478 136.743 138.592 136.885 138.702 137.025C139.872 138.505 140.616 139.624 140.722 140.625C140.799 141.344 140.568 142.433 138.344 143.904C136.988 144.801 135.994 145.752 135.388 146.799C134.759 147.885 134.592 148.998 134.774 150.078C134.948 151.112 135.428 152.037 135.957 152.833C136.487 153.63 137.135 154.394 137.724 155.082C137.772 155.138 137.82 155.193 137.867 155.248C138.423 155.896 138.922 156.477 139.335 157.053C139.784 157.679 140.047 158.187 140.152 158.613C140.246 158.989 140.222 159.311 140.037 159.671C139.828 160.076 139.358 160.632 138.344 161.303C137.101 162.125 136.177 162.984 135.609 163.925C135.013 164.914 134.844 165.938 135.041 166.939C135.227 167.882 135.715 168.691 136.222 169.353C136.73 170.018 137.346 170.645 137.891 171.196L137.976 171.282C138.512 171.824 138.978 172.295 139.358 172.763C139.76 173.259 139.962 173.63 140.037 173.913C140.094 174.132 140.089 174.333 139.933 174.616C139.745 174.955 139.306 175.457 138.344 176.094C137.636 176.562 137.442 177.514 137.91 178.221C138.377 178.929 139.33 179.123 140.037 178.655C141.215 177.876 142.098 177.043 142.618 176.104C143.169 175.11 143.259 174.093 143.006 173.131C142.769 172.233 142.255 171.461 141.742 170.828C141.263 170.238 140.695 169.665 140.19 169.154C140.151 169.115 140.112 169.076 140.074 169.037C139.513 168.47 139.033 167.974 138.66 167.487C138.286 166.999 138.11 166.629 138.054 166.346C138.009 166.119 138.022 165.869 138.238 165.511C138.482 165.107 138.999 164.55 140.037 163.864C141.302 163.027 142.232 162.115 142.766 161.076C143.324 159.993 143.387 158.9 143.132 157.874C142.89 156.899 142.372 156.02 141.829 155.263C141.334 154.572 140.747 153.889 140.211 153.265C140.158 153.204 140.107 153.143 140.055 153.084C139.455 152.384 138.925 151.752 138.514 151.133C138.101 150.512 137.875 150.002 137.801 149.568C137.736 149.18 137.78 148.794 138.045 148.338C138.331 147.843 138.913 147.209 140.037 146.465C142.773 144.656 144.021 142.608 143.775 140.3C143.56 138.275 142.183 136.478 141.111 135.121C140.981 134.957 140.854 134.797 140.73 134.641C140.293 134.093 139.894 133.593 139.543 133.091C139.092 132.449 138.808 131.926 138.679 131.486C138.56 131.085 138.58 130.797 138.701 130.524C138.838 130.215 139.182 129.754 140.037 129.189C143.335 127.008 145.053 124.83 145.066 122.461C145.079 120.182 143.471 118.435 142.218 117.231C141.882 116.908 141.538 116.595 141.215 116.302L141.177 116.267C140.863 115.982 140.571 115.717 140.299 115.457C139.715 114.899 139.332 114.466 139.126 114.108C138.948 113.797 138.983 113.692 138.996 113.655C138.996 113.654 138.996 113.653 138.997 113.652C139.033 113.543 139.216 113.189 140.037 112.646C140.744 112.178 140.938 111.226 140.471 110.519Z" fill="#43C140"/>
<path fill-rule="evenodd" clip-rule="evenodd" d="M169.254 133.161C168.786 132.454 167.834 132.26 167.127 132.728C166.053 133.438 165.216 134.275 164.866 135.326C164.493 136.45 164.785 137.476 165.248 138.28C165.688 139.046 166.347 139.733 166.962 140.32C167.263 140.607 167.58 140.896 167.886 141.173C167.902 141.188 167.918 141.202 167.933 141.217C168.259 141.513 168.573 141.798 168.874 142.088C170.17 143.333 170.784 144.253 170.779 145.087C170.775 145.831 170.236 147.214 167.127 149.271C165.979 150.03 165.131 150.897 164.677 151.924C164.206 152.987 164.235 154.042 164.517 154.997C164.787 155.912 165.293 156.756 165.812 157.497C166.224 158.083 166.7 158.681 167.146 159.24C167.261 159.385 167.375 159.528 167.485 159.667C168.655 161.148 169.399 162.266 169.506 163.268C169.582 163.987 169.351 165.076 167.127 166.547C165.771 167.444 164.778 168.395 164.171 169.442C163.542 170.528 163.375 171.641 163.557 172.721C163.731 173.754 164.211 174.68 164.74 175.476C165.27 176.272 165.918 177.037 166.508 177.725C166.555 177.78 166.603 177.836 166.65 177.89C167.206 178.538 167.705 179.12 168.118 179.695C168.567 180.322 168.83 180.83 168.936 181.256C169.029 181.631 169.005 181.954 168.82 182.314C168.612 182.718 168.141 183.275 167.127 183.946C165.885 184.767 164.96 185.626 164.392 186.568C163.796 187.556 163.628 188.581 163.825 189.582C164.01 190.525 164.499 191.334 165.005 191.996C165.514 192.66 166.13 193.288 166.674 193.839L166.759 193.925C167.295 194.467 167.761 194.938 168.141 195.406C168.543 195.901 168.745 196.273 168.82 196.556C168.877 196.775 168.873 196.976 168.716 197.259C168.528 197.597 168.09 198.1 167.127 198.737C166.42 199.205 166.225 200.157 166.693 200.864C167.161 201.571 168.113 201.765 168.82 201.298C169.999 200.519 170.881 199.685 171.401 198.747C171.952 197.753 172.042 196.736 171.789 195.774C171.552 194.876 171.038 194.104 170.525 193.471C170.046 192.881 169.478 192.308 168.973 191.797C168.934 191.758 168.895 191.719 168.857 191.68C168.296 191.113 167.816 190.617 167.443 190.13C167.069 189.641 166.893 189.272 166.837 188.988C166.792 188.762 166.805 188.511 167.021 188.154C167.265 187.75 167.783 187.193 168.82 186.507C170.086 185.67 171.015 184.757 171.55 183.719C172.107 182.636 172.17 181.542 171.916 180.517C171.674 179.541 171.155 178.663 170.613 177.906C170.117 177.215 169.53 176.532 168.994 175.907C168.942 175.846 168.89 175.786 168.839 175.726C168.238 175.026 167.709 174.395 167.297 173.775C166.884 173.155 166.658 172.644 166.585 172.21C166.519 171.823 166.564 171.437 166.828 170.981C167.114 170.486 167.696 169.851 168.82 169.108C171.556 167.299 172.804 165.25 172.559 162.943C172.343 160.918 170.966 159.12 169.894 157.764C169.764 157.599 169.637 157.44 169.513 157.284C169.076 156.736 168.678 156.236 168.326 155.734C167.875 155.092 167.592 154.569 167.462 154.129C167.344 153.728 167.364 153.44 167.484 153.167C167.621 152.858 167.966 152.397 168.82 151.832C172.119 149.65 173.836 147.473 173.85 145.104C173.862 142.825 172.254 141.078 171.001 139.874C170.665 139.551 170.321 139.238 169.998 138.944L169.96 138.91C169.646 138.625 169.355 138.36 169.083 138.1C168.498 137.542 168.115 137.109 167.909 136.75C167.731 136.44 167.766 136.335 167.779 136.297C167.779 136.296 167.78 136.295 167.78 136.294C167.816 136.185 167.999 135.831 168.82 135.288C169.527 134.821 169.722 133.868 169.254 133.161Z" fill="#FF008A"/>
<path d="M75.7685 0.392985V12.3054H71.0281V0.392985H64.9614V12.3054H60.221V0.392985H54.1543V17.3405H81.8352V0.392985H75.7685Z" fill="white"/>
<path d="M90.4673 0.392985H84.4006V17.3405H90.4673V10.979H92.8006L98.8182 17.3405H106.211L97.7866 8.3755L105.843 0.392985H98.9165L93.2673 5.99303H90.4673V0.392985Z" fill="white"/>
<path d="M128.042 8.67024C128.042 1.69475 123.867 0 116.769 0C109.67 0 105.519 1.69475 105.519 8.67024C105.519 16.0142 109.67 17.7335 116.769 17.7335C123.892 17.7335 128.042 16.0142 128.042 8.67024ZM121.853 9.80008C121.853 12.8212 120.06 13.0422 116.769 13.0422C113.502 13.0422 111.709 12.8212 111.709 9.80008V7.88427C111.709 5.1825 113.502 4.69126 116.769 4.69126C120.06 4.69126 121.853 5.1825 121.853 7.88427V9.80008Z" fill="white"/>
<path d="M149.855 17.3405V0.392985H131.729V6.95093C131.729 10.0948 131.532 11.7896 129.444 11.7896H128.757V17.3405H130.476C135.904 17.3405 137.402 14.6387 137.402 6.90181V5.42811H143.788V17.3405H149.855Z" fill="white"/>
<path d="M158.517 0.392985L151.345 17.3405H156.748L158.074 14.172H166.524L167.85 17.3405H174.113L167.039 0.392985H158.517ZM162.348 4.07722L164.657 9.65271H159.99L162.348 4.07722Z" fill="white"/>
<path d="M67.3079 20.7024H54.2657V46.1236H62.8868V29.3972L72.9079 46.1236H85.9501V20.7024H77.329V37.4656L67.3079 20.7024ZM98.5871 34.9235C104.85 34.9235 108.829 32.8603 108.829 27.4814C108.829 22.1392 104.85 20.1129 98.5871 20.1129C92.3239 20.1129 88.3449 22.1392 88.3449 27.4814C88.3449 32.8603 92.3239 34.9235 98.5871 34.9235ZM89.0817 42.2183H107.798V36.4709H89.0817V42.2183ZM98.5871 29.7656C96.266 29.7656 95.1239 29.5814 95.1239 27.7393V27.2235C95.1239 25.3813 96.3029 25.2708 98.5871 25.2708C100.871 25.2708 102.05 25.3445 102.05 27.2235V27.7393C102.05 29.5814 100.908 29.7656 98.5871 29.7656Z" fill="white"/>
<path d="M127.041 27.1498C129.399 27.1498 131.02 27.2235 131.02 28.734V28.9919C131.02 32.4551 113.63 29.8024 113.63 41.9604V46.1236H139.752V39.1236H123.43C124.057 36.8025 140.046 38.5709 140.046 28.2919C140.046 22.1392 134.962 20.1129 127.041 20.1129C119.009 20.1129 114.109 22.1024 113.667 29.0656H122.804C123.246 27.555 124.278 27.1498 127.041 27.1498Z" fill="white"/>
<path d="M155.971 20.7024L144.034 34.9972V41.2236H160.171V46.1236H169.307V41.2236H173.802V34.5551H169.307V20.7024H155.971ZM153.686 34.5551L160.171 26.7813V34.5551H153.686Z" fill="white"/>
<defs>
<linearGradient id="paint0_linear_110_289" x1="2.88574" y1="146.56" x2="113.604" y2="149.842" gradientUnits="userSpaceOnUse">
<stop offset="0.739583" stop-color="#FF4B4B"/>
<stop offset="1" stop-color="#EE2525"/>
</linearGradient>
<linearGradient id="paint1_linear_110_289" x1="11.0186" y1="147.002" x2="113.597" y2="150.151" gradientUnits="userSpaceOnUse">
<stop offset="0.713542" stop-color="white"/>
<stop offset="1" stop-color="#E8E8E8"/>
</linearGradient>
</defs>
</svg>
